<svg width="24" height="24" viewBox="0 0 24 24" fill="none" xmlns="http://www.w3.org/2000/svg">
<path fill-rule="evenodd" clip-rule="evenodd" d="M15.2697 16.9731C13.9945 17.9022 12.4239 18.4504 10.7253 18.4504C6.45875 18.4504 3 14.9917 3 10.7252C3 6.45869 6.45875 3 10.7253 3C14.9919 3 18.4507 6.45869 18.4507 10.7252C18.4507 12.4239 17.9024 13.9946 16.9731 15.2699L20.6472 18.9439C21.1176 19.4143 21.1176 20.1769 20.6472 20.6472C20.1769 21.1176 19.4143 21.1176 18.944 20.6472L15.2697 16.9731ZM14.071 15.1795C13.1394 15.8803 11.9809 16.2957 10.7253 16.2957C7.64871 16.2957 5.15471 13.8016 5.15471 10.7252C5.15471 7.64877 7.64871 5.15473 10.7253 5.15473C13.8019 5.15473 16.2959 7.64877 16.2959 10.7252C16.2959 11.9807 15.8806 13.1392 15.1798 14.0708L14.071 15.1795Z" fill="#212529"/>
</svg>
