<svg width="24" height="24" viewBox="0 0 24 24" fill="none" xmlns="http://www.w3.org/2000/svg">
<path d="M3 4C3 3.44772 3.44772 3 4 3H11C11.5523 3 12 3.44772 12 4C12 4.55228 11.5523 5 11 5H5V11C5 11.5523 4.55228 12 4 12C3.44772 12 3 11.5523 3 11V4Z" fill="#212529"/>
<path d="M16.1402 4.66223C17.0232 3.77926 18.4548 3.77926 19.3378 4.66223C20.2207 5.5452 20.2207 6.97678 19.3378 7.85976L14.5415 12.656L11.344 9.45852L16.1402 4.66223Z" fill="#212529"/>
<path d="M10.5446 10.2579L13.7421 13.4554L8.94581 18.2517L5.74829 15.0542L10.5446 10.2579Z" fill="#212529"/>
<path d="M4.94891 15.8536L8.14643 19.0511L4.68756 19.9776C4.25539 20.0933 3.90668 19.7446 4.02244 19.3124L4.94891 15.8536Z" fill="#212529"/>
<path d="M21 13C21 12.4477 20.5523 12 20 12C19.4477 12 19 12.4477 19 13V19H13C12.4477 19 12 19.4477 12 20C12 20.5523 12.4477 21 13 21H20C20.5523 21 21 20.5523 21 20V13Z" fill="#212529"/>
</svg>
