<svg width="24" height="24" viewBox="0 0 24 24" fill="none" xmlns="http://www.w3.org/2000/svg">
<path d="M18 3L9.92943 3C8.57533 2.99997 7.45869 2.99994 6.57494 3.11876C5.64711 3.2435 4.82769 3.51547 4.17158 4.17158C3.51547 4.82769 3.2435 5.64711 3.11876 6.57494C2.99994 7.45869 2.99997 8.57529 3 9.92939V14.0706C2.99997 15.4247 2.99994 16.5413 3.11876 17.4251C3.2435 18.3529 3.51547 19.1723 4.17158 19.8284C4.82769 20.4845 5.64711 20.7565 6.57494 20.8813C7.4587 21.0001 8.57531 21 9.92944 21H18C18.5523 21 19 20.5523 19 20C19 19.4477 18.5523 19 18 19H10C8.55752 19 7.57626 18.9979 6.84144 18.8991C6.13538 18.8042 5.80836 18.6368 5.58579 18.4142C5.36322 18.1916 5.19585 17.8646 5.10092 17.1586C5.00213 16.4238 5 15.4425 5 14V10C5 8.55752 5.00213 7.57626 5.10092 6.84144C5.19585 6.13538 5.36322 5.80836 5.58579 5.58579C5.80836 5.36322 6.13538 5.19585 6.84144 5.10092C7.57626 5.00213 8.55752 5 10 5H18C18.5523 5 19 4.55229 19 4C19 3.44772 18.5523 3 18 3Z" fill="#212529"/>
<path d="M15.7071 7.2929C15.3166 6.90237 14.6834 6.90237 14.2929 7.2929C13.9024 7.68342 13.9024 8.31659 14.2929 8.70711L16.5858 11H8C7.44772 11 7 11.4477 7 12C7 12.5523 7.44772 13 8 13H16.5858L14.2929 15.2929C13.9024 15.6834 13.9024 16.3166 14.2929 16.7071C14.6834 17.0976 15.3166 17.0976 15.7071 16.7071L19.7071 12.7071C20.0976 12.3166 20.0976 11.6834 19.7071 11.2929L15.7071 7.2929Z" fill="#212529"/>
</svg>
